<svg xmlns="http://www.w3.org/2000/svg" width="2480" height="841"><path fill="#022f56" d="M0 0h2480v841H0z"/><g transform="translate(1240,420.5) scale(1.3) translate(-1240,-420.5)"><linearGradient id="lg-0.2519962050414528" x1="0" x2="1" y1="0" y2="0"><stop stop-color="#8154e8" offset="0"></stop><stop stop-color="#47bc99" offset="1"></stop></linearGradient><path d="" fill="url(#lg-0.2519962050414528)" opacity="0.7"><animate attributeName="d" dur="20s" repeatCount="indefinite" keyTimes="0;0.333;0.667;1" calcmod="spline" keySplines="0.2 0 0.2 1;0.2 0 0.2 1;0.2 0 0.2 1" begin="0s" values="M0 0M 0 782.0642762329601Q 248 734.9179190877288 496 733.3616803110173T 992 662.0067877821964T 1488 656.7013406319596T 1984 606.1744849184307T 2480 649.5736446593223L 2480 229.388631502972Q 2232 253.69688648287206 1984 249.6701709197495T 1488 223.5673919336586T 992 188.5947119266939T 496 146.17153296624528T 0 132.8400305022157Z;M0 0M 0 758.7756840601196Q 248 700.6894297638441 496 699.822252897383T 992 726.2370054137564T 1488 621.4294065631416T 1984 615.4702165485671T 2480 576.0936539631895L 2480 262.54824152074036Q 2232 207.15328220612727 1984 202.96850347920585T 1488 174.50830722194394T 992 95.47972977490835T 496 106.63680628428384T 0 106.91801904156131Z;M0 0M 0 787.3091541898573Q 248 781.7000550366971 496 774.7372415871978T 992 687.8841005261113T 1488 709.9290992461333T 1984 678.8041095842166T 2480 655.1921807350019L 2480 245.09483950857575Q 2232 187.49650819954397 1984 180.5844219545101T 1488 145.31480948425963T 992 137.11042267660753T 496 67.20583260415583T 0 68.89856452320424Z;M0 0M 0 782.0642762329601Q 248 734.9179190877288 496 733.3616803110173T 992 662.0067877821964T 1488 656.7013406319596T 1984 606.1744849184307T 2480 649.5736446593223L 2480 229.388631502972Q 2232 253.69688648287206 1984 249.6701709197495T 1488 223.5673919336586T 992 188.5947119266939T 496 146.17153296624528T 0 132.8400305022157Z"></animate></path><path d="" fill="url(#lg-0.2519962050414528)" opacity="0.7"><animate attributeName="d" dur="20s" repeatCount="indefinite" keyTimes="0;0.333;0.667;1" calcmod="spline" keySplines="0.2 0 0.2 1;0.2 0 0.2 1;0.2 0 0.2 1" begin="-5s" values="M0 0M 0 715.5429584691205Q 248 754.1478320759364 496 749.5066478542201T 992 653.6032713279848T 1488 713.5055747916927T 1984 601.1429382012893T 2480 579.5522352519544L 2480 243.41761150120553Q 2232 224.85487943223458 1984 217.5759999294464T 1488 133.83122226429515T 992 129.43434456205827T 496 118.58894231522333T 0 54.38111141615673Z;M0 0M 0 736.6666018459832Q 248 759.9837473037021 496 758.0344632756245T 992 665.133362931133T 1488 676.9114930979285T 1984 604.1461171932574T 2480 611.8420711934679L 2480 211.5767266139486Q 2232 223.01941676244195 1984 213.2319005401224T 1488 161.97076313160238T 992 133.1757177303918T 496 111.85050854660778T 0 47.267405052738695Z;M0 0M 0 741.1056837288857Q 248 743.269947621374 496 734.1033677677277T 992 681.3963460023904T 1488 616.0858410466112T 1984 592.0848173837907T 2480 625.5580387716093L 2480 192.36205855879356Q 2232 187.58806598392522 1984 182.5301818145887T 1488 125.26742421045667T 992 106.3875781353056T 496 147.9917049984667T 0 85.18865937898269Z;M0 0M 0 715.5429584691205Q 248 754.1478320759364 496 749.5066478542201T 992 653.6032713279848T 1488 713.5055747916927T 1984 601.1429382012893T 2480 579.5522352519544L 2480 243.41761150120553Q 2232 224.85487943223458 1984 217.5759999294464T 1488 133.83122226429515T 992 129.43434456205827T 496 118.58894231522333T 0 54.38111141615673Z"></animate></path><path d="" fill="url(#lg-0.2519962050414528)" opacity="0.7"><animate attributeName="d" dur="20s" repeatCount="indefinite" keyTimes="0;0.333;0.667;1" calcmod="spline" keySplines="0.2 0 0.2 1;0.2 0 0.2 1;0.2 0 0.2 1" begin="-10s" values="M0 0M 0 720.3823170625064Q 248 726.8962880490819 496 723.7301603591279T 992 649.6807689441314T 1488 673.7645101673145T 1984 672.7447848360762T 2480 570.5444101247659L 2480 250.95408721423556Q 2232 209.4133628433847 1984 203.6297064478496T 1488 197.5046951410065T 992 165.7686160835034T 496 156.53484155184955T 0 97.36986552363427Z;M0 0M 0 724.3962084227351Q 248 769.1299274508185 496 768.4830171846951T 992 655.4212637971035T 1488 617.6098643556762T 1984 675.6001436637315T 2480 578.6555149618548L 2480 207.30644409362088Q 2232 246.78374417643633 1984 242.78555550854023T 1488 165.13498315228884T 992 155.29938452351067T 496 153.48119397033244T 0 120.6165910277295Z;M0 0M 0 786.7498587874586Q 248 694.8904525315791 496 694.7859065263139T 992 741.9007401162123T 1488 712.7427018330851T 1984 600.771387610264T 2480 560.9341255603665L 2480 225.95438349701095Q 2232 186.20731855137916 1984 185.02902415963018T 1488 183.6097058877093T 992 97.76892948528908T 496 92.84315936525135T 0 91.7830080123826Z;M0 0M 0 720.3823170625064Q 248 726.8962880490819 496 723.7301603591279T 992 649.6807689441314T 1488 673.7645101673145T 1984 672.7447848360762T 2480 570.5444101247659L 2480 250.95408721423556Q 2232 209.4133628433847 1984 203.6297064478496T 1488 197.5046951410065T 992 165.7686160835034T 496 156.53484155184955T 0 97.36986552363427Z"></animate></path><path d="" fill="url(#lg-0.2519962050414528)" opacity="0.7"><animate attributeName="d" dur="20s" repeatCount="indefinite" keyTimes="0;0.333;0.667;1" calcmod="spline" keySplines="0.2 0 0.2 1;0.2 0 0.2 1;0.2 0 0.2 1" begin="-15s" values="M0 0M 0 707.1385046152416Q 248 741.154130909628 496 738.9494749733625T 992 680.4349662709988T 1488 617.1455889417254T 1984 639.7913544337896T 2480 579.3831447517819L 2480 274.1830892684144Q 2232 237.13097793198264 1984 234.97879405783814T 1488 168.62421084767675T 992 103.70717309587539T 496 163.5458162591336T 0 98.18670940975551Z;M0 0M 0 710.4156618893423Q 248 759.6720480963229 496 753.5903378382793T 992 722.5914652612204T 1488 690.5105416654412T 1984 585.3597061496537T 2480 623.4823777900987L 2480 185.48684563678975Q 2232 165.47379669917476 1984 163.10759633822462T 1488 141.10763304431538T 992 151.5897552874598T 496 69.38324077133359T 0 36.6003141028051Z;M0 0M 0 772.8403900774404Q 248 719.1140117513448 496 712.2983771219039T 992 743.7832066519325T 1488 695.6260868332281T 1984 610.7382822891122T 2480 572.4175511985597L 2480 216.06056419019376Q 2232 227.29850541273373 1984 225.07843726404624T 1488 132.28246999492183T 992 126.29068456374628T 496 126.07589605862685T 0 107.88023817804111Z;M0 0M 0 707.1385046152416Q 248 741.154130909628 496 738.9494749733625T 992 680.4349662709988T 1488 617.1455889417254T 1984 639.7913544337896T 2480 579.3831447517819L 2480 274.1830892684144Q 2232 237.13097793198264 1984 234.97879405783814T 1488 168.62421084767675T 992 103.70717309587539T 496 163.5458162591336T 0 98.18670940975551Z"></animate></path></g><path fill="#fff" d="m592.362 468.125-66.38-103.76-.1 87.18-114.4-192.6h-80.48v325.14h79.58l.26-192.36 113.22 183.74 68.3-107.34zM526.002 342.525h79.48l.18-.92v-82.66h-79.58l-.1 82.66.02.92z"/><path d="M728.322 432.665a44.96 44.96 0 0 0-42.94 29.14 42.82 42.82 0 0 1 51.08-16.12c8.64 3.52 20 9.2 29 6.16a45.7 45.7 0 0 0-37.14-19.18Z" fill="#96d8e9"/><path d="M818.502 471.785c0-9.74-5.3-12-16.3-16-8.16-2.84-17.42-6.04-24.16-14.84-1.32-1.74-2.54-3.7-3.84-5.78a46.44 46.44 0 0 0-11.62-14c-6.42-4.72-14.84-7.02-25.76-7.02a54.12 54.12 0 0 0-50 33.5 50.74 50.74 0 0 1 87.26 8.46 16.3 16.3 0 0 0 18.22 7.28c10.74-2.3 10 7.86 26.22 11.3Z" fill="#48c4e5"/><path d="M853.922 469.705v-.22c-.24-64.48-52.58-119.64-117.1-119.64a116.96 116.96 0 0 0-97.82 52.72l-.42-.72-33.12-52h-79.46l75.5 118.24-73.68 116h77.18l33.58-51.58 34.18 51.58h77.2l-70-110.16a15.28 15.28 0 0 1-1.84-6.98 58.64 58.64 0 0 1 58.66-58.66c32.44 0 37.86 19.4 44.86 28.52 13.82 18 41.42 10.12 41.42 33.6a15.402 15.402 0 1 0 30.8-.46v-.24Z" fill="#fff"/><path d="M854.002 486.305a29.48 29.48 0 0 1-2.24 16.14c-4.4 10.18-11.74 6.78-11.74 6.78s-6.32-3.08-2.48-8.98c4.26-6.58 12.68-5.82 16.46-13.94Z" fill="#022f56"/><path d="M1360 390.5h-90v-90h-60v90h-90v60h90v90h60v-90h90ZM1741.911 611.965a10.381 10.381 0 0 1-4.355-2.54 4.797 4.797 0 0 1-1.31-3.242 4.44 4.44 0 0 1 .98-2.944 3.222 3.222 0 0 1 2.585-1.173 4.524 4.524 0 0 1 2.844.955 3.217 3.217 0 0 1 1.237 2.705c0 1.173-.716 2.128-2.144 2.903 1.182 1.015 2.984 1.532 5.41 1.532q7.877 0 7.877-4.475 0-2.805-4.989-4.475-2.052-.717-4.125-1.492a10.207 10.207 0 0 1-3.612-2.327 5.59 5.59 0 0 1-1.678-3.74 7.477 7.477 0 0 1 2.098-5.37c2.625-2.804 6.584-4.197 11.834-4.197a15.114 15.114 0 0 1 6.843 1.472c1.989.995 2.983 2.248 2.983 3.8a4.144 4.144 0 0 1-6.663 3.5 2.87 2.87 0 0 1-1.094-2.407 3.167 3.167 0 0 1 1.81-2.665 6.966 6.966 0 0 0-3.878-.796 14.368 14.368 0 0 0-4.953.816q-2.208.805-2.208 2.203a2.69 2.69 0 0 0 1.611 2.328 23.238 23.238 0 0 0 3.879 1.73 59.079 59.079 0 0 1 4.574 1.82 10.772 10.772 0 0 1 3.899 2.938 7.188 7.188 0 0 1-.676 9.798c-2.884 2.884-6.843 4.336-11.835 4.336a21.086 21.086 0 0 1-7.021-1.075l.075.08Zm32.608-26.804a184.524 184.524 0 0 1 9.79-24.987l5.78.465c-.342.994-1.181 3.401-2.518 7.18-2.89 8.374-4.754 14.142-5.595 17.344h7.32l-.737 3.083h-7.558q-4.266 13.247-4.276 16.115 0 2.864.597 2.864a2.56 2.56 0 0 0 1.054-.218q1.253-.687 5.41-6.803l1.91 1.73a28.28 28.28 0 0 1-6.425 8.414c-2.208 1.81-4.018 2.721-5.45 2.721a3.772 3.772 0 0 1-3.242-1.492 6.25 6.25 0 0 1-1.094-3.819c0-3.938 1.392-10.442 4.157-19.472h-4.893l.756-3.083h5.092l-.076-.04Zm16.783 11-3.029-1.818a28.212 28.212 0 0 1 5.804-7.131c2.315-2.049 4.39-3.063 6.226-3.063 2.983 0 4.475 1.333 4.475 4.018 0 1.133-.772 3.838-2.307 8.174s-2.308 7.061-2.308 8.215a6.569 6.569 0 0 0 .231 2.228c.16.338.497.497 1.034.497a15.198 15.198 0 0 0 8.752-3.182 14.893 14.893 0 0 0 5.848-7.061l3.262-9.508a4.912 4.912 0 0 1 1.59-2.287 3.43 3.43 0 0 1 2.09-.836 2.143 2.143 0 0 1 1.63.657 2.408 2.408 0 0 1 .637 1.73 6.668 6.668 0 0 1-.418 2.248l-3.54 10.343a67.553 67.553 0 0 1-9.09 18 47.31 47.31 0 0 1 9.567 1.91l-.378 2.605a75.106 75.106 0 0 0-11.377-1.537 46.573 46.573 0 0 1-9.249 9.308c-3.162 2.307-5.907 3.48-8.254 3.48a8.21 8.21 0 0 1-5.271-1.431 4.736 4.736 0 0 1-1.75-3.89 6.566 6.566 0 0 1 1.87-4.496 13.317 13.317 0 0 1 4.992-3.278 43.218 43.218 0 0 1 14.56-2.983 43.334 43.334 0 0 0 3.122-5.247c1.63-3 2.546-4.893 2.665-5.669-5.51 4.654-10.343 6.982-14.54 6.982a4.154 4.154 0 0 1-3.719-1.75 7.631 7.631 0 0 1-1.173-4.313c0-1.702.656-4.634 1.949-8.791a50.934 50.934 0 0 0 1.941-7.081c0-.577-.14-.855-.398-.855a2.14 2.14 0 0 0-.867.199 2.991 2.991 0 0 0-.907.656l-.815.835s-.518.637-.816 1.104l-.676 1.074c-.657 1.03-1.074 1.71-1.261 2.049l-.1-.1Zm13.472 24.102a36.14 36.14 0 0 0-7.692 1.353q-7.548 2.148-7.552 5.032c0 1.153.696 1.726 2.128 1.726s3.76-1.034 6.982-3.103 5.27-3.733 6.106-5.012h.026Zm38.925-69.969h7.554q-2 3.446-6.146 15.312-4.147 11.862-7.578 23.868-3.431 12-3.421 14.684c0 1.79.218 2.69.656 2.69q1.969 0 6.106-5.908l1.97 1.87a30.177 30.177 0 0 1-4.416 5.967q-4.177 4.296-6.803 4.292c-3.162 0-4.753-1.91-4.753-5.728q0-8.533 5.668-26.892a232.726 232.726 0 0 1 11.218-30.113l-.053-.04Zm10.163 52.814q.28 5.361 7.228 5.36a11.409 11.409 0 0 0 5.339-1.467 15.254 15.254 0 0 0 4.5-3.473l2.006 1.305q-3.867 6.48-12.348 7.924a24.236 24.236 0 0 1-3.594.278 11.434 11.434 0 0 1-8.394-3.331 11.043 11.043 0 0 1-3.355-8.135 14.935 14.935 0 0 1 2.938-8.895 20.203 20.203 0 0 1 7.34-6.325 19.113 19.113 0 0 1 8.695-2.248 13.89 13.89 0 0 1 7.435 1.95 6.116 6.116 0 0 1 3.214 5.27 8.351 8.351 0 0 1-1.925 5.709 12.827 12.827 0 0 1-5.072 3.66 31.628 31.628 0 0 1-11.974 2.466l-1.989-.1-.04.05Zm-.278-2.566a21.777 21.777 0 0 0 8.322-1.65 10.202 10.202 0 0 0 4.38-3.356 7.19 7.19 0 0 0 1.233-3.962 4.025 4.025 0 0 0-1.074-3.077 3.294 3.294 0 0 0-2.288-1.003 8.426 8.426 0 0 0-5.49 2.075 13.366 13.366 0 0 0-3.798 5.032 14.564 14.564 0 0 0-1.313 5.947l.026-.004Zm41.954-50.248h7.552q-2.008 3.443-6.152 15.31-4.147 11.865-7.578 23.868t-3.429 14.684c0 1.788.219 2.685.652 2.685q1.958 0 6.107-5.923l1.957 1.866a29.687 29.687 0 0 1-4.436 5.967q-4.206 4.29-6.802 4.286c-3.182 0-4.754-1.91-4.754-5.734q0-8.533 5.649-26.897a232.504 232.504 0 0 1 11.218-30.114h.016Zm9.905 62.743a4.008 4.008 0 0 1-3.103-1.213 4.703 4.703 0 0 1-1.12-3.332 21.617 21.617 0 0 1 1.094-5.78q1.092-3.657 2.194-6.643a14.927 14.927 0 0 0 1.094-3.986c0-.668-.213-1.002-.65-1.002q-1.635 0-5.267 6.432l-3.123-1.818q6.856-11.561 12.59-11.562 3.909 0 3.915 4.94a18.547 18.547 0 0 1-.935 4.615l-3.355 9.601a6.94 6.94 0 0 0-.517 2.447c0 .73.282 1.094.843 1.094q1.581 0 5.828-5.872l1.955 1.818a24.102 24.102 0 0 1-5.991 7.459q-3.473 2.798-5.456 2.804Zm13.26-42.678a5.27 5.27 0 0 1-1.258 3.427 4.162 4.162 0 0 1-3.401 1.552 3.916 3.916 0 0 1-3.203-1.273 4.866 4.866 0 0 1-1.074-3.242 5.135 5.135 0 0 1 1.333-3.461 4.314 4.314 0 0 1 3.42-1.512 3.793 3.793 0 0 1 3.144 1.333 5.059 5.059 0 0 1 1.054 3.222l-.014-.044Zm13.665 28.833q9.741-15.058 17.48-15.057a4.79 4.79 0 0 1 3.918 1.585 6.128 6.128 0 0 1 1.305 4.018c0 1.611-.722 4.416-2.168 8.394q-2.172 5.967-2.168 7.403c0 .954.23 1.432.7 1.432.62 0 1.535-.637 2.75-1.93a29.592 29.592 0 0 0 3.223-4.077l1.969 1.87a24.412 24.412 0 0 1-6.126 7.677c-2.228 1.727-4.018 2.586-5.41 2.586a3.97 3.97 0 0 1-3.223-1.373 5.606 5.606 0 0 1-1.153-3.739c0-1.571.636-4.157 1.89-7.757s1.889-6.126 1.889-7.638-.497-2.267-1.532-2.267c-1.173 0-2.565.756-4.196 2.267a34.032 34.032 0 0 0-4.694 5.53q-3.64 5.22-7.42 12.033l-1.252 2.242h-6.564l1.452-4.38q4.057-12.122 4.057-14.38c0-1.504-.238-2.268-.736-2.268-.895 0-1.969 1.074-3.202 3.218-.278.497-.517.895-.696 1.194s-.398.656-.627 1.074c-.238.417-.377.676-.449.771l-3.123-1.814a43.07 43.07 0 0 1 6.663-8.751 9.085 9.085 0 0 1 6.206-2.817 3.184 3.184 0 0 1 2.492 1.214 4.3 4.3 0 0 1 1.048 2.924 21.136 21.136 0 0 1-.278 3.38 22.542 22.542 0 0 1-.593 2.746l-.795 2.824q-.484 1.724-.537 1.955l-.1-.091Zm35.802-14.03a184.562 184.562 0 0 1 9.786-24.988l5.782.465c-.344.994-1.183 3.401-2.52 7.18-2.89 8.374-4.754 14.142-5.595 17.344h7.32l-.736 3.083h-7.539c-2.864 8.831-4.272 14.202-4.272 16.115q0 2.864.597 2.864a2.56 2.56 0 0 0 1.054-.218q1.253-.687 5.41-6.803l1.91 1.73a28.612 28.612 0 0 1-6.425 8.414c-2.208 1.81-4.018 2.721-5.45 2.721a3.772 3.772 0 0 1-3.242-1.492 6.25 6.25 0 0 1-1.094-3.819c0-3.938 1.392-10.442 4.157-19.472h-4.893l.752-3.083h5.086l-.09-.04ZM1861.555 546.035c40.55-145.008 39.375-145.663 68.688-249.057l7.048 4.07c3.83 2.213 6.965.404 6.965-4.009v-49.307c7.778-27.243 13.874-48.294 15.66-54.624h31.757l52.757 48.874-34.648 29.943 26.199 28.325-172.674 245.785c-.844 1.388-2.02 1.071-1.752 0Z" fill="#fff"/><path d="M1880.42 233.485c1.558 0 2.832.862 2.832 1.932v25.27c0 1.067-1.274 1.934-2.833 1.934h-42.656c-1.568 0-2.838-.864-2.838-1.935v-25.269c0-1.066 1.27-1.932 2.838-1.932Zm52.649-27.98-46.926 27.09a5.102 5.102 0 0 1 .875 2.823v25.27a5.18 5.18 0 0 1-1.346 3.447l47.397 27.362c3.23 1.866 5.881.34 5.881-3.388v-79.212c0-3.73-2.65-5.253-5.881-3.391Zm-101.912 55.181v-25.269a5.143 5.143 0 0 1 .87-2.817l-46.927-27.094c-3.229-1.862-5.877-.339-5.877 3.39v79.212c0 3.726 2.645 5.256 5.877 3.387l47.394-27.364a5.192 5.192 0 0 1-1.338-3.445Z" fill="#fff"/><path d="M1854.753 546.035h1.753c-40.545-145.008-39.378-145.663-68.688-249.057l-7.05 4.07c-3.828 2.213-6.963.404-6.963-4.009v-49.307c-7.782-27.243-13.875-48.294-15.665-54.624h-31.755l-52.755 48.874 34.645 29.943-26.2 28.325Z" fill="#fff"/><circle cx="1857.743" cy="302.572" r="12.808" fill="#fff"/><circle cx="1857.743" cy="378.73" r="12.808" fill="#fff"/><circle cx="1857.743" cy="454.897" r="12.807" fill="#fff"/></svg>
